<svg xmlns="http://www.w3.org/2000/svg" xmlns:xlink="http://www.w3.org/1999/xlink" viewBox="0 0 102.18 80.22"><defs><style>.cls-1,.cls-3{fill:#4b7702;}.cls-2{fill:url(#linear-gradient);}.cls-3{font-size:73.8px;font-family:MyriadPro-Regular, Myriad Pro;}</style><linearGradient id="linear-gradient" x1="70.46" y1="31.32" x2="79.31" y2="22.48" gradientUnits="userSpaceOnUse"><stop offset="0" stop-color="#db0812"/><stop offset="0.2" stop-color="#d70812"/><stop offset="0.4" stop-color="#cb0710"/><stop offset="0.6" stop-color="#b8060e"/><stop offset="0.8" stop-color="#9c050c"/><stop offset="0.99" stop-color="#790308"/><stop offset="1" stop-color="#770308"/></linearGradient></defs><title>eReturn_Short</title><g id="Layer_2" data-name="Layer 2"><g id="Layer_1-2" data-name="Layer 1"><path class="cls-1" d="M37.68,51l8.91.93a18.37,18.37,0,0,1-7.8,10.2q-5.7,3.63-14.56,3.63Q13.07,65.77,6.54,60T0,43.75Q0,32.95,6.61,27t17.14-6Q34,21,40.41,26.85t6.47,16.46c0,.43,0,1.07-.05,1.93H8.91q.48,7.07,4.74,10.81A15.5,15.5,0,0,0,24.28,59.8a15,15,0,0,0,8.09-2.09A14.07,14.07,0,0,0,37.68,51ZM9.39,39.28H37.78q-.57-5.41-3.26-8.11A14.27,14.27,0,0,0,23.85,27a15.16,15.16,0,0,0-10,3.34A12.3,12.3,0,0,0,9.39,39.28Z"/><path class="cls-2" d="M81.39,26.9a6.53,6.53,0,0,1-13,0,6.53,6.53,0,0,1,13,0Z"/><text class="cls-3" transform="translate(46.88 61.77) scale(1.39 1)">R</text></g></g></svg>