<svg xmlns="http://www.w3.org/2000/svg" xmlns:xlink="http://www.w3.org/1999/xlink" viewBox="0 0 289.99 106.87"><defs><style>.cls-1{fill:url(#linear-gradient);}.cls-2{fill:url(#linear-gradient-2);}.cls-3{fill:url(#linear-gradient-3);}.cls-4{font-size:47.88px;font-family:SegoeUI-Bold, Segoe UI;font-weight:700;}</style><linearGradient id="linear-gradient" y1="21.98" x2="28.93" y2="21.98" gradientUnits="userSpaceOnUse"><stop offset="0.34" stop-color="#437a22"/><stop offset="0.67" stop-color="#437a22"/></linearGradient><linearGradient id="linear-gradient-2" x1="59.68" y1="61.32" x2="139.92" y2="-18.93" xlink:href="#linear-gradient"/><linearGradient id="linear-gradient-3" x1="43.37" y1="13.78" x2="49.05" y2="8.1" gradientUnits="userSpaceOnUse"><stop offset="0" stop-color="#db0812"/><stop offset="0.2" stop-color="#d70812"/><stop offset="0.4" stop-color="#cb0710"/><stop offset="0.6" stop-color="#b8060e"/><stop offset="0.8" stop-color="#9c050c"/><stop offset="0.99" stop-color="#790308"/><stop offset="1" stop-color="#770308"/></linearGradient></defs><g id="Layer_2" data-name="Layer 2"><g id="Layer_1-2" data-name="Layer 1"><path class="cls-1" d="M23.25,27.08l5.5.63a12.22,12.22,0,0,1-4.82,6.83A15.45,15.45,0,0,1,15,37Q8.07,37,4,33.09T0,22.22Q0,15,4.08,11A14.49,14.49,0,0,1,14.66,7a14.07,14.07,0,0,1,10.28,3.92q4,3.91,4,11c0,.28,0,.72,0,1.29H5.5a10.48,10.48,0,0,0,2.92,7.24A9.14,9.14,0,0,0,15,33a8.71,8.71,0,0,0,5-1.4A9.29,9.29,0,0,0,23.25,27.08ZM5.79,19.23H23.31a9.08,9.08,0,0,0-2-5.43A8.48,8.48,0,0,0,14.71,11a8.92,8.92,0,0,0-6.16,2.24A8.55,8.55,0,0,0,5.79,19.23Z"/><path class="cls-2" d="M34.27,0h12.1c7.47,0,13.22,2.64,13.22,10.65,0,7.72-5.75,11.23-13.22,11.23H40.64v14H34.27ZM45.71,16.78c4.92,0,7.6-2,7.6-6.13S50.63,5.1,45.71,5.1H40.64V16.78Zm-.54,3.4,4.62-3.8L61,35.91H53.84Zm15.49,2.27c0-8.77,6.08-14.17,12.43-14.17,7.29,0,11.14,5.27,11.14,12.81A16.48,16.48,0,0,1,84,24.16H66.83c.53,4.79,3.6,7.51,8,7.51a11.5,11.5,0,0,0,6.26-2l2.15,3.93A16.69,16.69,0,0,1,74,36.57C66.5,36.57,60.66,31.35,60.66,22.45Zm18.1-2.59c0-4.15-1.85-6.68-5.54-6.68-3.14,0-5.91,2.35-6.46,6.68Zm8.67,7V14H83.59V9.23l4.17-.29,0-7.36h6V8.94h6.87v5H93.76V26.81c0,3.17,1.23,4.73,3.82,4.73a8.65,8.65,0,0,0,2.81-.61l1.08,4.65a17.31,17.31,0,0,1-5.52,1C89.74,36.57,87.43,32.64,87.43,26.82Zm15.33-1V8.94h6.33V25c0,4.44,1.27,6.11,4.19,6.11,2.38,0,3.93-1.1,6-3.74V8.94h6.32v27H120.4l-.48-4h-.18c-2.37,2.81-5,4.63-8.68,4.63C105.29,36.57,102.76,32.66,102.76,25.85Zm27.6-16.91h5.18l.49,4.81h.17c1.92-3.51,4.78-5.47,7.67-5.47a6.9,6.9,0,0,1,3,.55l-1.1,5.49a9.19,9.19,0,0,0-2.77-.44c-2.15,0-4.74,1.47-6.36,5.58V35.91h-6.33Zm18.46,0H154l-.73,3.65h1.39c2.42-2.35,5.16-4.31,8.85-4.31,5.78,0,8.3,3.91,8.3,10.72V35.91h-6.32V19.81c0-4.43-1.27-6.1-4.2-6.1-2.37,0-3.93,1.16-6.15,3.36V35.91h-6.32Z"/><path class="cls-3" d="M50.22,10.94a4,4,0,1,1-4-4A4,4,0,0,1,50.22,10.94Z"/><text class="cls-4" transform="translate(146.92 86.25) scale(0.91 1)">OFFICE</text></g></g></svg>