<svg xmlns="http://www.w3.org/2000/svg" xmlns:xlink="http://www.w3.org/1999/xlink" viewBox="0 0 199.28 42.24"><defs><style>.cls-1{mask:url(#mask);filter:url(#luminosity-noclip-2);}.cls-2{mix-blend-mode:multiply;fill:url(#linear-gradient);}.cls-3{mask:url(#mask-2);}.cls-4{fill:url(#linear-gradient-2);}.cls-5{fill:#24682d;}.cls-6{filter:url(#luminosity-noclip);}</style><filter id="luminosity-noclip" x="0" y="-8065.08" width="165.7" height="32766" filterUnits="userSpaceOnUse" color-interpolation-filters="sRGB"><feFlood flood-color="#fff" result="bg"/><feBlend in="SourceGraphic" in2="bg"/></filter><mask id="mask" x="0" y="-8065.08" width="165.7" height="32766" maskUnits="userSpaceOnUse"><g class="cls-6"/></mask><linearGradient id="linear-gradient" y1="21.12" x2="165.7" y2="21.12" gradientUnits="userSpaceOnUse"><stop offset="0.39" stop-color="#fff"/><stop offset="1"/></linearGradient><filter id="luminosity-noclip-2" x="0" y="0" width="165.7" height="42.24" filterUnits="userSpaceOnUse" color-interpolation-filters="sRGB"><feFlood flood-color="#fff" result="bg"/><feBlend in="SourceGraphic" in2="bg"/></filter><mask id="mask-2" x="0" y="0" width="165.7" height="42.24" maskUnits="userSpaceOnUse"><g class="cls-1"><rect class="cls-2" width="165.7" height="42.24"/></g></mask><linearGradient id="linear-gradient-2" y1="21.12" x2="165.7" y2="21.12" gradientUnits="userSpaceOnUse"><stop offset="0.39" stop-color="#fff"/><stop offset="1" stop-color="#f8fbfe"/></linearGradient></defs><title>eReturnLedger</title><g id="Layer_2" data-name="Layer 2"><g id="Layer_1-2" data-name="Layer 1"><g class="cls-3"><rect class="cls-4" width="165.7" height="42.24"/></g><path class="cls-5" d="M8.8,21.3c0-5,3.13-8,6.37-8,3.84,0,5.75,3.16,5.75,7.33a11.24,11.24,0,0,1-.17,2H12.68c.36,2.21,1.7,3.23,3.5,3.23a5.11,5.11,0,0,0,2.91-1l1.33,2.73a8.07,8.07,0,0,1-4.79,1.72C11.78,29.3,8.8,26.36,8.8,21.3Zm8.7-1.68c0-1.68-.65-2.89-2.24-2.89-1.27,0-2.36,1-2.63,2.89Z"/><path class="cls-5" d="M24,8.85h6.38c3.76,0,6.84,1.48,6.84,6.25s-3.08,6.61-6.84,6.61H28v7.22H24Zm6,9.25c2.11,0,3.25-1,3.25-3s-1.14-2.64-3.25-2.64H28V18.1Zm-.4,2.41,2.77-2.91,5.66,11.33H33.6Z"/><path class="cls-5" d="M39.29,21.3c0-5,3.12-8,6.36-8,3.85,0,5.75,3.16,5.75,7.33a12.52,12.52,0,0,1-.16,2H43.16c.36,2.21,1.7,3.23,3.5,3.23a5.17,5.17,0,0,0,2.92-1l1.32,2.73a8,8,0,0,1-4.78,1.72C42.27,29.3,39.29,26.36,39.29,21.3ZM48,19.62c0-1.68-.65-2.89-2.25-2.89-1.26,0-2.35,1-2.62,2.89Z"/><path class="cls-5" d="M54.43,23.38V17.2H52.59V13.82l2.06-.17.47-4.06h3.31v4.06h3.23V17.2H58.43v6.12c0,1.73.69,2.43,1.75,2.43a3.75,3.75,0,0,0,1.28-.29l.63,3.29a8.49,8.49,0,0,1-3,.55C55.75,29.3,54.43,26.92,54.43,23.38Z"/><path class="cls-5" d="M64.18,23.14V13.65h4v8.91c0,2.2.53,2.89,1.68,2.89s1.62-.48,2.4-1.69V13.65h4V28.93H73l-.29-2.12h-.1a5.11,5.11,0,0,1-4.24,2.49C65.43,29.3,64.18,27,64.18,23.14Z"/><path class="cls-5" d="M79.75,13.65H83l.29,2.67h.1c1-2,2.46-3,3.83-3a3.42,3.42,0,0,1,1.61.3l-.66,3.91a5.07,5.07,0,0,0-1.46-.24c-1,0-2.25.74-3,2.82v8.86h-4Z"/><path class="cls-5" d="M90.57,13.65h3.27l.29,1.93h.09a6,6,0,0,1,4.34-2.3c2.94,0,4.19,2.34,4.19,6.16v9.49h-4V20c0-2.2-.52-2.89-1.68-2.89-1,0-1.62.53-2.5,1.49V28.93h-4Z"/><path class="cls-5" d="M107.78,9.67h4.57V25h8v3.59H107.78Z"/><path class="cls-5" d="M122.13,21.39a7.29,7.29,0,0,1,7.26-7.55c4.38,0,6.55,3,6.55,6.91a8.9,8.9,0,0,1-.19,1.88h-9.2c.41,2.09,1.93,3,4,3a6.72,6.72,0,0,0,3.32-.94l1.51,2.57a10.48,10.48,0,0,1-5.46,1.62C125.53,28.92,122.13,26.15,122.13,21.39Zm9.92-1.58c0-1.58-.74-2.72-2.56-2.72a3,3,0,0,0-3,2.72Z"/><path class="cls-5" d="M138.29,21.39c0-4.71,3.15-7.55,6.39-7.55a5.25,5.25,0,0,1,3.77,1.5l-.17-2.18V8.26h4.56V28.58h-3.72l-.32-1.43h-.12a6.25,6.25,0,0,1-4.09,1.77C140.76,28.92,138.29,26.08,138.29,21.39Zm10,2.76V18.24a3.84,3.84,0,0,0-2.54-.91c-1.48,0-2.77,1.27-2.77,4s1,4.1,2.81,4.1A3,3,0,0,0,148.28,24.15Z"/><path class="cls-5" d="M155.91,31.05c0-1.2.77-2.16,2.18-2.9V28a2.75,2.75,0,0,1-1.4-2.44,3.47,3.47,0,0,1,1.71-2.7v-.11a4.53,4.53,0,0,1-2.06-3.73c0-3.46,3-5.21,6.36-5.21a7.68,7.68,0,0,1,2.38.35h5.63v3.1h-2.47a3.66,3.66,0,0,1,.52,1.9c0,3.31-2.7,4.83-6.06,4.83a6.7,6.7,0,0,1-1.88-.28,1.23,1.23,0,0,0-.54,1.07c0,.71.63,1.06,2.31,1.06h2.49c3.78,0,5.88,1.08,5.88,3.66,0,3-3.33,5.16-8.61,5.16C158.77,34.69,155.91,33.61,155.91,31.05Zm10.68-.8c0-.9-.83-1.11-2.34-1.11h-1.6a9.12,9.12,0,0,1-2.16-.18,1.78,1.78,0,0,0-.83,1.41c0,1.09,1.35,1.65,3.41,1.65S166.59,31.25,166.59,30.25Zm-1.79-11.2a2.11,2.11,0,1,0-4.2,0,2.12,2.12,0,1,0,4.2,0Z"/><path class="cls-5" d="M172,21.39a7.29,7.29,0,0,1,7.26-7.55c4.38,0,6.55,3,6.55,6.91a8.9,8.9,0,0,1-.19,1.88h-9.2c.41,2.09,1.94,3,4,3a6.72,6.72,0,0,0,3.32-.94l1.51,2.57a10.48,10.48,0,0,1-5.46,1.62C175.36,28.92,172,26.15,172,21.39Zm9.92-1.58c0-1.58-.74-2.72-2.56-2.72a3,3,0,0,0-3,2.72Z"/><path class="cls-5" d="M188.92,14.19h3.72L193,16.7h.12a5.21,5.21,0,0,1,4.37-2.86,4.39,4.39,0,0,1,1.83.29l-.76,3.68a6.46,6.46,0,0,0-1.66-.23,3.79,3.79,0,0,0-3.39,2.66v8.34h-4.55Z"/></g></g></svg>