<svg xmlns="http://www.w3.org/2000/svg" xmlns:xlink="http://www.w3.org/1999/xlink" viewBox="0 0 165.7 42.24"><defs><style>.cls-1{mask:url(#mask);filter:url(#luminosity-noclip-2);}.cls-2{mix-blend-mode:multiply;fill:url(#linear-gradient);}.cls-3{mask:url(#mask-2);}.cls-4{fill:url(#linear-gradient-2);}.cls-5{fill:#24682d;}.cls-6{filter:url(#luminosity-noclip);}</style><filter id="luminosity-noclip" x="0" y="-7953.66" width="165.7" height="32766" filterUnits="userSpaceOnUse" color-interpolation-filters="sRGB"><feFlood flood-color="#fff" result="bg"/><feBlend in="SourceGraphic" in2="bg"/></filter><mask id="mask" x="0" y="-7953.66" width="165.7" height="32766" maskUnits="userSpaceOnUse"><g class="cls-6"/></mask><linearGradient id="linear-gradient" y1="21.12" x2="165.7" y2="21.12" gradientUnits="userSpaceOnUse"><stop offset="0.39" stop-color="#fff"/><stop offset="1"/></linearGradient><filter id="luminosity-noclip-2" x="0" y="0" width="165.7" height="42.24" filterUnits="userSpaceOnUse" color-interpolation-filters="sRGB"><feFlood flood-color="#fff" result="bg"/><feBlend in="SourceGraphic" in2="bg"/></filter><mask id="mask-2" x="0" y="0" width="165.7" height="42.24" maskUnits="userSpaceOnUse"><g class="cls-1"><rect class="cls-2" width="165.7" height="42.24"/></g></mask><linearGradient id="linear-gradient-2" y1="21.12" x2="165.7" y2="21.12" gradientUnits="userSpaceOnUse"><stop offset="0.39" stop-color="#fff"/><stop offset="1" stop-color="#f8fbfe"/></linearGradient></defs><title>eTax Service</title><g id="Layer_2" data-name="Layer 2"><g id="Layer_1-2" data-name="Layer 1"><g class="cls-3"><rect class="cls-4" width="165.7" height="42.24"/></g><path class="cls-5" d="M23.66,19.66c0-4.25,3-6.87,6.18-6.87,3.73,0,5.57,2.71,5.57,6.28a8.46,8.46,0,0,1-.16,1.72H27.42a3.16,3.16,0,0,0,3.4,2.77,5.42,5.42,0,0,0,2.83-.86L34.93,25a8.51,8.51,0,0,1-4.65,1.48C26.55,26.52,23.66,24,23.66,19.66Zm8.44-1.44c0-1.44-.63-2.48-2.18-2.48a2.6,2.6,0,0,0-2.54,2.48Z"/><path class="cls-5" d="M41,12.26H36.31V9H49.67v3.27H44.93V26.2H41Z"/><path class="cls-5" d="M49.74,22.57c0-2.76,2.19-4.26,7.37-4.8A1.83,1.83,0,0,0,55,15.87a7.24,7.24,0,0,0-3.47,1.19l-1.38-2.55a10.7,10.7,0,0,1,5.6-1.72c3.35,0,5.2,1.91,5.2,5.92V26.2H57.82l-.27-1.34h-.1a5.75,5.75,0,0,1-3.81,1.66A3.77,3.77,0,0,1,49.74,22.57Zm7.37-.18V20.11c-2.76.37-3.66,1.16-3.66,2.15,0,.84.58,1.26,1.5,1.26A3,3,0,0,0,57.11,22.39Z"/><path class="cls-5" d="M66.93,19.38,63.15,13.1h4.16l1.16,2.12,1.11,2.23h.11c.28-.73.61-1.5.89-2.23l.9-2.12h4l-3.79,6.73,4,6.37H71.58L70.29,24c-.41-.75-.81-1.54-1.23-2.28H69c-.34.74-.68,1.51-1,2.28l-1,2.16h-4Z"/><path class="cls-5" d="M76.81,24l2.24-2.67a6.82,6.82,0,0,0,4.22,1.8c1.63,0,2.42-.64,2.42-1.66s-1-1.43-2.48-2.05L81,18.5a5,5,0,0,1-3.47-4.69c0-2.86,2.55-5.13,6.13-5.13a8,8,0,0,1,5.53,2.25l-2,2.45A5.58,5.58,0,0,0,83.63,12c-1.34,0-2.19.56-2.19,1.54s1.12,1.44,2.62,2l2.19.88c2.11.85,3.42,2.25,3.42,4.68,0,2.86-2.39,5.34-6.48,5.34A9.5,9.5,0,0,1,76.81,24Z"/><path class="cls-5" d="M91.51,19.66c0-4.25,3-6.87,6.18-6.87,3.73,0,5.58,2.71,5.58,6.28a9.26,9.26,0,0,1-.16,1.72H95.27a3.16,3.16,0,0,0,3.4,2.77,5.42,5.42,0,0,0,2.83-.86L102.78,25a8.5,8.5,0,0,1-4.64,1.48C94.41,26.52,91.51,24,91.51,19.66ZM100,18.22c0-1.44-.62-2.48-2.17-2.48a2.6,2.6,0,0,0-2.55,2.48Z"/><path class="cls-5" d="M106,13.1h3.16l.28,2.29h.1a4.41,4.41,0,0,1,3.72-2.6,3.6,3.6,0,0,1,1.56.26l-.65,3.35a5.09,5.09,0,0,0-1.41-.21c-1,0-2.18.63-2.88,2.42V26.2H106Z"/><path class="cls-5" d="M115.24,13.1h3.9l1.71,6.18c.33,1.31.68,2.66,1,4H122c.33-1.37.68-2.72,1-4l1.71-6.18h3.71l-4.27,13.1h-4.47Z"/><path class="cls-5" d="M130.14,9.16a2.26,2.26,0,1,1,2.24,2A2.06,2.06,0,0,1,130.14,9.16Zm.3,3.94h3.88V26.2h-3.88Z"/><path class="cls-5" d="M137,19.66a6.59,6.59,0,0,1,6.82-6.87,5.65,5.65,0,0,1,3.83,1.41l-1.83,2.49a2.65,2.65,0,0,0-1.78-.77c-1.86,0-3.06,1.47-3.06,3.74s1.25,3.72,2.93,3.72a4,4,0,0,0,2.37-1L147.75,25a6.54,6.54,0,0,1-4.31,1.56C139.78,26.52,137,24,137,19.66Z"/><path class="cls-5" d="M148.55,19.66c0-4.25,3-6.87,6.17-6.87,3.73,0,5.58,2.71,5.58,6.28a8.46,8.46,0,0,1-.16,1.72h-7.83a3.15,3.15,0,0,0,3.39,2.77,5.42,5.42,0,0,0,2.83-.86L159.82,25a8.53,8.53,0,0,1-4.65,1.48C151.44,26.52,148.55,24,148.55,19.66ZM157,18.22c0-1.44-.63-2.48-2.18-2.48a2.62,2.62,0,0,0-2.55,2.48Z"/></g></g></svg>