<svg xmlns="http://www.w3.org/2000/svg" xmlns:xlink="http://www.w3.org/1999/xlink" viewBox="0 0 180.07 42.24"><defs><style>.cls-1{mask:url(#mask);filter:url(#luminosity-noclip-2);}.cls-2{mix-blend-mode:multiply;fill:url(#linear-gradient);}.cls-3{mask:url(#mask-2);}.cls-4{fill:url(#linear-gradient-2);}.cls-5{fill:#24682d;}.cls-6{filter:url(#luminosity-noclip);}</style><filter id="luminosity-noclip" x="0" y="-8130.32" width="165.7" height="32766" filterUnits="userSpaceOnUse" color-interpolation-filters="sRGB"><feFlood flood-color="#fff" result="bg"/><feBlend in="SourceGraphic" in2="bg"/></filter><mask id="mask" x="0" y="-8130.32" width="165.7" height="32766" maskUnits="userSpaceOnUse"><g class="cls-6"/></mask><linearGradient id="linear-gradient" y1="21.12" x2="165.7" y2="21.12" gradientUnits="userSpaceOnUse"><stop offset="0.39" stop-color="#fff"/><stop offset="1"/></linearGradient><filter id="luminosity-noclip-2" x="0" y="0" width="165.7" height="42.24" filterUnits="userSpaceOnUse" color-interpolation-filters="sRGB"><feFlood flood-color="#fff" result="bg"/><feBlend in="SourceGraphic" in2="bg"/></filter><mask id="mask-2" x="0" y="0" width="165.7" height="42.24" maskUnits="userSpaceOnUse"><g class="cls-1"><rect class="cls-2" width="165.7" height="42.24"/></g></mask><linearGradient id="linear-gradient-2" y1="21.12" x2="165.7" y2="21.12" gradientUnits="userSpaceOnUse"><stop offset="0.39" stop-color="#fff"/><stop offset="1" stop-color="#f8fbfe"/></linearGradient></defs><title>eTaxPayment</title><g id="Layer_2" data-name="Layer 2"><g id="Layer_1-2" data-name="Layer 1"><g class="cls-3"><rect class="cls-4" width="165.7" height="42.24"/></g><path class="cls-5" d="M23.66,21.06c0-4.25,3-6.87,6.18-6.87,3.73,0,5.58,2.71,5.58,6.29a8.12,8.12,0,0,1-.17,1.71H27.42A3.16,3.16,0,0,0,30.82,25a5.5,5.5,0,0,0,2.83-.85l1.28,2.34a8.58,8.58,0,0,1-4.65,1.47C26.55,27.92,23.66,25.4,23.66,21.06Zm8.44-1.43c0-1.44-.63-2.48-2.18-2.48a2.59,2.59,0,0,0-2.54,2.48Z"/><path class="cls-5" d="M41,13.66H36.31V10.4H49.67v3.26H44.93V27.6H41Z"/><path class="cls-5" d="M49.74,24c0-2.76,2.19-4.25,7.37-4.8A1.82,1.82,0,0,0,55,17.28a7.25,7.25,0,0,0-3.47,1.18L50.2,15.91a10.73,10.73,0,0,1,5.59-1.72c3.35,0,5.2,1.91,5.2,5.93V27.6H57.83l-.28-1.34h-.1a5.75,5.75,0,0,1-3.81,1.66A3.77,3.77,0,0,1,49.74,24Zm7.37-.17V21.51c-2.76.37-3.66,1.16-3.66,2.15S54,24.92,55,24.92A2.94,2.94,0,0,0,57.11,23.8Z"/><path class="cls-5" d="M66.93,20.79l-3.78-6.28h4.16l1.16,2.12,1.11,2.23h.11c.28-.73.61-1.51.89-2.23l.9-2.12h4l-3.79,6.72,4,6.37H71.58l-1.29-2.16c-.41-.75-.81-1.54-1.23-2.28H69c-.34.74-.68,1.51-1,2.28l-1,2.16h-4Z"/><path class="cls-5" d="M78.56,10.4h5.91c3.78,0,6.84,1.35,6.84,5.53s-3.09,5.84-6.74,5.84H82.45V27.6H78.56Zm5.78,8.28c2.14,0,3.16-.95,3.16-2.75s-1.16-2.44-3.26-2.44H82.45v5.19Z"/><path class="cls-5" d="M92.47,24c0-2.76,2.19-4.25,7.37-4.8a1.82,1.82,0,0,0-2.07-1.89,7.22,7.22,0,0,0-3.47,1.18l-1.38-2.55a10.79,10.79,0,0,1,5.6-1.72c3.35,0,5.2,1.91,5.2,5.93V27.6h-3.16l-.28-1.34h-.1a5.75,5.75,0,0,1-3.81,1.66A3.77,3.77,0,0,1,92.47,24Zm7.37-.17V21.51c-2.76.37-3.66,1.16-3.66,2.15s.58,1.26,1.5,1.26A2.94,2.94,0,0,0,99.84,23.8Z"/><path class="cls-5" d="M106.58,32.46l.69-3a3.52,3.52,0,0,0,.88.17A2.24,2.24,0,0,0,110.44,28l.2-.68-5.06-12.76h3.9l1.88,5.63c.38,1.19.69,2.43,1,3.71h.11c.29-1.23.58-2.48.9-3.71L115,14.51h3.72l-4.55,13.24c-1.24,3.28-2.64,5-5.71,5A6,6,0,0,1,106.58,32.46Z"/><path class="cls-5" d="M120.73,14.51h3.16l.28,1.68h.1a5.47,5.47,0,0,1,4-2,3.62,3.62,0,0,1,3.61,2.21c1.15-1.21,2.38-2.21,4.11-2.21,2.83,0,4.1,2,4.1,5.28V27.6h-3.88V20c0-1.88-.52-2.47-1.62-2.47a3.35,3.35,0,0,0-2.23,1.27V27.6h-3.88V20c0-1.88-.51-2.47-1.61-2.47a3.35,3.35,0,0,0-2.23,1.27V27.6h-3.88Z"/><path class="cls-5" d="M142.58,21.06c0-4.25,3-6.87,6.18-6.87,3.73,0,5.58,2.71,5.58,6.29a9,9,0,0,1-.16,1.71h-7.84a3.16,3.16,0,0,0,3.4,2.77,5.5,5.5,0,0,0,2.83-.85l1.29,2.34a8.63,8.63,0,0,1-4.65,1.47C145.48,27.92,142.58,25.4,142.58,21.06ZM151,19.63c0-1.44-.63-2.48-2.18-2.48a2.59,2.59,0,0,0-2.55,2.48Z"/><path class="cls-5" d="M157,14.51h3.16l.28,1.66h.1a6,6,0,0,1,4.21-2c2.84,0,4.06,2,4.06,5.28V27.6H165V20c0-1.88-.51-2.47-1.63-2.47a3.31,3.31,0,0,0-2.42,1.27V27.6H157Z"/><path class="cls-5" d="M172.64,22.84V17.55h-1.79V14.66l2-.15.46-3.48h3.21v3.48h3.14v3h-3.14V22.8c0,1.48.67,2.08,1.69,2.08a4.08,4.08,0,0,0,1.25-.25l.61,2.82a9.29,9.29,0,0,1-2.91.47C173.92,27.92,172.64,25.88,172.64,22.84Z"/></g></g></svg>