<svg xmlns="http://www.w3.org/2000/svg" xmlns:xlink="http://www.w3.org/1999/xlink" viewBox="0 0 165.7 42.24"><defs><style>.cls-1{mask:url(#mask);filter:url(#luminosity-noclip-2);}.cls-2{mix-blend-mode:multiply;fill:url(#linear-gradient);}.cls-3{mask:url(#mask-2);}.cls-4{fill:url(#linear-gradient-2);}.cls-5{fill:#24682d;}.cls-6{filter:url(#luminosity-noclip);}</style><filter id="luminosity-noclip" x="0" y="-8010.9" width="165.7" height="32766" filterUnits="userSpaceOnUse" color-interpolation-filters="sRGB"><feFlood flood-color="#fff" result="bg"/><feBlend in="SourceGraphic" in2="bg"/></filter><mask id="mask" x="0" y="-8010.9" width="165.7" height="32766" maskUnits="userSpaceOnUse"><g class="cls-6"/></mask><linearGradient id="linear-gradient" y1="21.12" x2="165.7" y2="21.12" gradientUnits="userSpaceOnUse"><stop offset="0.39" stop-color="#fff"/><stop offset="1"/></linearGradient><filter id="luminosity-noclip-2" x="0" y="0" width="165.7" height="42.24" filterUnits="userSpaceOnUse" color-interpolation-filters="sRGB"><feFlood flood-color="#fff" result="bg"/><feBlend in="SourceGraphic" in2="bg"/></filter><mask id="mask-2" x="0" y="0" width="165.7" height="42.24" maskUnits="userSpaceOnUse"><g class="cls-1"><rect class="cls-2" width="165.7" height="42.24"/></g></mask><linearGradient id="linear-gradient-2" y1="21.12" x2="165.7" y2="21.12" gradientUnits="userSpaceOnUse"><stop offset="0.39" stop-color="#fff"/><stop offset="1" stop-color="#f8fbfe"/></linearGradient></defs><title>eTDS</title><g id="Layer_2" data-name="Layer 2"><g id="Layer_1-2" data-name="Layer 1"><g class="cls-3"><rect class="cls-4" width="165.7" height="42.24"/></g><path class="cls-5" d="M23.66,23.68c0-4.25,3-6.87,6.18-6.87,3.73,0,5.58,2.71,5.58,6.29a8.2,8.2,0,0,1-.17,1.71H27.42a3.16,3.16,0,0,0,3.4,2.77,5.5,5.5,0,0,0,2.83-.85l1.28,2.33a8.51,8.51,0,0,1-4.65,1.48C26.55,30.54,23.66,28,23.66,23.68Zm8.44-1.44c0-1.44-.63-2.47-2.18-2.47a2.59,2.59,0,0,0-2.54,2.47Z"/><path class="cls-5" d="M41,16.28H36.31V13H49.67v3.26H44.93V30.22H41Z"/><path class="cls-5" d="M52.35,13h4.86c5.26,0,8.65,2.61,8.65,8.53s-3.39,8.67-8.43,8.67H52.35ZM57,27.09c2.92,0,4.89-1.43,4.89-5.54s-2-5.4-4.89-5.4h-.74V27.09Z"/><path class="cls-5" d="M68,28.05l2.23-2.67a6.82,6.82,0,0,0,4.23,1.8c1.62,0,2.42-.64,2.42-1.66s-1-1.43-2.48-2.05l-2.24-.95a5,5,0,0,1-3.47-4.69c0-2.85,2.54-5.13,6.13-5.13A7.92,7.92,0,0,1,80.35,15l-2,2.45a5.61,5.61,0,0,0-3.57-1.35c-1.35,0-2.2.56-2.2,1.54s1.13,1.44,2.63,2l2.19.89c2.1.85,3.41,2.25,3.41,4.68,0,2.85-2.38,5.33-6.48,5.33A9.46,9.46,0,0,1,68,28.05Z"/></g></g></svg>