<svg xmlns="http://www.w3.org/2000/svg" xmlns:xlink="http://www.w3.org/1999/xlink" viewBox="0 0 165.7 42.24"><defs><style>.cls-1{mask:url(#mask);filter:url(#luminosity-noclip-2);}.cls-2{mix-blend-mode:multiply;fill:url(#linear-gradient);}.cls-3{mask:url(#mask-2);}.cls-4{fill:url(#linear-gradient-2);}.cls-5{fill:#24682d;}.cls-6{filter:url(#luminosity-noclip);}</style><filter id="luminosity-noclip" x="0" y="-8244.8" width="165.7" height="32766" filterUnits="userSpaceOnUse" color-interpolation-filters="sRGB"><feFlood flood-color="#fff" result="bg"/><feBlend in="SourceGraphic" in2="bg"/></filter><mask id="mask" x="0" y="-8244.8" width="165.7" height="32766" maskUnits="userSpaceOnUse"><g class="cls-6"/></mask><linearGradient id="linear-gradient" y1="21.12" x2="165.7" y2="21.12" gradientUnits="userSpaceOnUse"><stop offset="0.39" stop-color="#fff"/><stop offset="1"/></linearGradient><filter id="luminosity-noclip-2" x="0" y="0" width="165.7" height="42.24" filterUnits="userSpaceOnUse" color-interpolation-filters="sRGB"><feFlood flood-color="#fff" result="bg"/><feBlend in="SourceGraphic" in2="bg"/></filter><mask id="mask-2" x="0" y="0" width="165.7" height="42.24" maskUnits="userSpaceOnUse"><g class="cls-1"><rect class="cls-2" width="165.7" height="42.24"/></g></mask><linearGradient id="linear-gradient-2" y1="21.12" x2="165.7" y2="21.12" gradientUnits="userSpaceOnUse"><stop offset="0.39" stop-color="#fff"/><stop offset="1" stop-color="#f8fbfe"/></linearGradient></defs><title>Asset 2</title><g id="Layer_2" data-name="Layer 2"><g id="Layer_1-2" data-name="Layer 1"><g class="cls-3"><rect class="cls-4" width="165.7" height="42.24"/></g><path class="cls-5" d="M23.66,25.74c0-4.25,3-6.87,6.18-6.87,3.73,0,5.58,2.71,5.58,6.28a8.32,8.32,0,0,1-.17,1.72H27.42a3.16,3.16,0,0,0,3.4,2.77,5.42,5.42,0,0,0,2.83-.86l1.28,2.34a8.51,8.51,0,0,1-4.65,1.48C26.55,32.6,23.66,30.07,23.66,25.74ZM32.1,24.3c0-1.44-.63-2.47-2.18-2.47a2.59,2.59,0,0,0-2.54,2.47Z"/><path class="cls-5" d="M41,18.34H36.31V15.08H49.67v3.26H44.93V32.28H41Z"/><path class="cls-5" d="M52.35,15.08h3.89v17.2H52.35Z"/><path class="cls-5" d="M60.3,15.08h4l4.49,8.55,1.7,3.78h.11c-.19-1.82-.5-4.23-.5-6.26V15.08h3.71v17.2h-4L65.31,23.7,63.61,20H63.5c.19,1.89.5,4.2.5,6.23v6.1H60.3Z"/></g></g></svg>