<svg xmlns="http://www.w3.org/2000/svg" xmlns:xlink="http://www.w3.org/1999/xlink" viewBox="0 0 165.7 42.24"><defs><style>.cls-1{mask:url(#mask);filter:url(#luminosity-noclip-2);}.cls-2{mix-blend-mode:multiply;fill:url(#linear-gradient);}.cls-3{mask:url(#mask-2);}.cls-4{fill:url(#linear-gradient-2);}.cls-5{fill:#24682d;}.cls-6{filter:url(#luminosity-noclip);}</style><filter id="luminosity-noclip" x="0" y="-8068.14" width="165.7" height="32766" filterUnits="userSpaceOnUse" color-interpolation-filters="sRGB"><feFlood flood-color="#fff" result="bg"/><feBlend in="SourceGraphic" in2="bg"/></filter><mask id="mask" x="0" y="-8068.14" width="165.7" height="32766" maskUnits="userSpaceOnUse"><g class="cls-6"/></mask><linearGradient id="linear-gradient" y1="21.12" x2="165.7" y2="21.12" gradientUnits="userSpaceOnUse"><stop offset="0.39" stop-color="#fff"/><stop offset="1"/></linearGradient><filter id="luminosity-noclip-2" x="0" y="0" width="165.7" height="42.24" filterUnits="userSpaceOnUse" color-interpolation-filters="sRGB"><feFlood flood-color="#fff" result="bg"/><feBlend in="SourceGraphic" in2="bg"/></filter><mask id="mask-2" x="0" y="0" width="165.7" height="42.24" maskUnits="userSpaceOnUse"><g class="cls-1"><rect class="cls-2" width="165.7" height="42.24"/></g></mask><linearGradient id="linear-gradient-2" y1="21.12" x2="165.7" y2="21.12" gradientUnits="userSpaceOnUse"><stop offset="0.39" stop-color="#fff"/><stop offset="1" stop-color="#f8fbfe"/></linearGradient></defs><title>eTaxLedger</title><g id="Layer_2" data-name="Layer 2"><g id="Layer_1-2" data-name="Layer 1"><g class="cls-3"><rect class="cls-4" width="165.7" height="42.24"/></g><path class="cls-5" d="M23.66,21.21c0-4.25,3-6.87,6.18-6.87,3.73,0,5.57,2.72,5.57,6.29a8.27,8.27,0,0,1-.16,1.71H27.42a3.17,3.17,0,0,0,3.4,2.78,5.42,5.42,0,0,0,2.83-.86l1.28,2.34a8.5,8.5,0,0,1-4.65,1.47C26.55,28.07,23.66,25.55,23.66,21.21Zm8.44-1.43c0-1.44-.63-2.48-2.18-2.48a2.59,2.59,0,0,0-2.54,2.48Z"/><path class="cls-5" d="M41,13.81H36.31V10.55H49.67v3.26H44.93v14H41Z"/><path class="cls-5" d="M49.74,24.12c0-2.75,2.19-4.25,7.37-4.79A1.83,1.83,0,0,0,55,17.43a7.22,7.22,0,0,0-3.47,1.18l-1.38-2.54a10.71,10.71,0,0,1,5.6-1.73c3.35,0,5.2,1.92,5.2,5.93v7.49H57.82l-.27-1.35h-.1a5.75,5.75,0,0,1-3.81,1.66A3.77,3.77,0,0,1,49.74,24.12ZM57.11,24V21.66c-2.76.38-3.66,1.17-3.66,2.16,0,.84.58,1.25,1.5,1.25A2.94,2.94,0,0,0,57.11,24Z"/><path class="cls-5" d="M66.93,20.94l-3.78-6.28h4.16l1.16,2.12L69.58,19h.11c.28-.73.61-1.5.89-2.23l.9-2.12h4l-3.79,6.72,4,6.38H71.58l-1.29-2.17c-.41-.75-.81-1.54-1.23-2.28H69c-.34.74-.68,1.51-1,2.28l-1,2.17h-4Z"/><path class="cls-5" d="M78.56,10.55h3.89v14h6.79v3.26H78.56Z"/><path class="cls-5" d="M90.78,21.21c0-4.25,3-6.87,6.17-6.87,3.73,0,5.58,2.72,5.58,6.29a9,9,0,0,1-.16,1.71H94.53a3.17,3.17,0,0,0,3.4,2.78,5.42,5.42,0,0,0,2.83-.86l1.29,2.34a8.55,8.55,0,0,1-4.65,1.47C93.67,28.07,90.78,25.55,90.78,21.21Zm8.44-1.43c0-1.44-.63-2.48-2.18-2.48a2.59,2.59,0,0,0-2.55,2.48Z"/><path class="cls-5" d="M104.53,21.21c0-4.28,2.68-6.87,5.43-6.87a4.33,4.33,0,0,1,3.22,1.37l-.14-2V9.26h3.88v18.5h-3.17l-.28-1.3h-.1a5.19,5.19,0,0,1-3.48,1.61C106.64,28.07,104.53,25.49,104.53,21.21ZM113,23.73V18.35a3.17,3.17,0,0,0-2.17-.83c-1.26,0-2.36,1.16-2.36,3.65s.89,3.73,2.39,3.73A2.53,2.53,0,0,0,113,23.73Z"/><path class="cls-5" d="M119.53,30a3,3,0,0,1,1.85-2.63v-.11A2.54,2.54,0,0,1,120.19,25a3.14,3.14,0,0,1,1.46-2.45v-.11a4.17,4.17,0,0,1-1.76-3.4c0-3.14,2.6-4.74,5.42-4.74a6.39,6.39,0,0,1,2,.32h4.79v2.83H130a3.48,3.48,0,0,1,.44,1.72c0,3-2.29,4.4-5.15,4.4a5.74,5.74,0,0,1-1.6-.25,1.12,1.12,0,0,0-.46,1c0,.65.53,1,2,1h2.12c3.21,0,5,1,5,3.33,0,2.72-2.83,4.71-7.33,4.71C122,33.33,119.53,32.33,119.53,30Zm9.09-.72c0-.82-.71-1-2-1h-1.36a6.65,6.65,0,0,1-1.83-.17,1.64,1.64,0,0,0-.71,1.29c0,1,1.15,1.5,2.9,1.5S128.62,30.19,128.62,29.28Zm-1.53-10.2c0-1.39-.75-2.13-1.78-2.13s-1.79.73-1.79,2.13.76,2.18,1.79,2.18S127.09,20.52,127.09,19.08Z"/><path class="cls-5" d="M133.19,21.21c0-4.25,3-6.87,6.17-6.87,3.74,0,5.58,2.72,5.58,6.29a8.27,8.27,0,0,1-.16,1.71H137a3.17,3.17,0,0,0,3.39,2.78,5.46,5.46,0,0,0,2.84-.86l1.28,2.34a8.52,8.52,0,0,1-4.65,1.47C136.08,28.07,133.19,25.55,133.19,21.21Zm8.44-1.43c0-1.44-.63-2.48-2.18-2.48a2.61,2.61,0,0,0-2.55,2.48Z"/><path class="cls-5" d="M147.62,14.66h3.17l.28,2.29h.09a4.43,4.43,0,0,1,3.72-2.61,3.55,3.55,0,0,1,1.56.27L155.8,18a5.17,5.17,0,0,0-1.42-.21c-1,0-2.18.63-2.88,2.42v7.59h-3.88Z"/></g></g></svg>